<?xml version="1.0" encoding="UTF-8"?>
<svg width="126px" height="126px" viewBox="0 0 126 126" version="1.1" xmlns="http://www.w3.org/2000/svg" xmlns:xlink="http://www.w3.org/1999/xlink">
    <!-- Generator: Sketch 43.1 (39012) - http://www.bohemiancoding.com/sketch -->
    <title>Group</title>
    <desc>Created with Sketch.</desc>
    <defs></defs>
    <g id="FontAwesome" stroke="none" stroke-width="1" fill="none" fill-rule="evenodd">
        <g id="fa/dot" fill="#FFFFFF">
            <g id="Group">
                <path d="M117.18,31.592 C111.585,22.006 103.995,14.416 94.409,8.821 C84.821,3.226 74.354,0.429 63.001,0.429 C51.649,0.429 41.179,3.226 31.593,8.821 C22.006,14.415 14.416,22.005 8.821,31.592 C3.225,41.179 0.428,51.649 0.428,63 C0.428,74.352 3.226,84.82 8.82,94.408 C14.415,103.993 22.005,111.584 31.592,117.179 C41.179,122.774 51.648,125.571 63,125.571 C74.352,125.571 84.822,122.774 94.408,117.179 C103.994,111.585 111.584,103.994 117.179,94.408 C122.773,84.821 125.57,74.351 125.57,63 C125.57,51.648 122.773,41.178 117.18,31.592 L117.18,31.592 Z M101.374,85.242 C97.409,92.031 92.032,97.408 85.242,101.374 C78.453,105.339 71.039,107.32 63,107.32 C54.962,107.32 47.548,105.339 40.758,101.374 C33.969,97.408 28.592,92.031 24.627,85.242 C20.661,78.453 18.679,71.039 18.679,63 C18.679,54.961 20.662,47.547 24.627,40.758 C28.591,33.969 33.969,28.591 40.758,24.626 C47.547,20.661 54.961,18.679 63,18.679 C71.039,18.679 78.453,20.661 85.242,24.626 C92.032,28.591 97.409,33.969 101.374,40.758 C105.339,47.547 107.32,54.961 107.32,63 C107.32,71.039 105.339,78.453 101.374,85.242 L101.374,85.242 Z" id="Shape"></path>
                <path d="M48.253,48.253 C44.18,52.327 42.143,57.242 42.143,63 C42.143,68.758 44.179,73.673 48.253,77.746 C52.327,81.82 57.243,83.857 63,83.857 C68.758,83.857 73.674,81.82 77.747,77.746 C81.82,73.673 83.857,68.758 83.857,63 C83.857,57.242 81.82,52.327 77.747,48.253 C73.674,44.18 68.758,42.143 63,42.143 C57.242,42.143 52.327,44.18 48.253,48.253 Z" id="Shape"></path>
            </g>
        </g>
    </g>
</svg>