<?xml version="1.0" encoding="UTF-8"?>
<svg width="64px" height="106px" viewBox="0 0 64 106" version="1.1" xmlns="http://www.w3.org/2000/svg" xmlns:xlink="http://www.w3.org/1999/xlink">
    <!-- Generator: Sketch 43.1 (39012) - http://www.bohemiancoding.com/sketch -->
    <title>Shape</title>
    <desc>Created with Sketch.</desc>
    <defs></defs>
    <g id="FontAwesome" stroke="none" stroke-width="1" fill="none" fill-rule="evenodd">
        <g id="fa/mobile29" transform="translate(1.000000, 1.000000)" fill="#FFFFFF">
            <path d="M59.189,2.953 C57.126,0.888 54.681,-0.143 51.857,-0.143 L10.143,-0.143 C7.318,-0.143 4.874,0.889 2.81,2.953 C0.746,5.016 -0.286,7.461 -0.286,10.285 L-0.286,93.714 C-0.286,96.539 0.746,98.983 2.81,101.047 C4.874,103.111 7.318,104.143 10.143,104.143 L51.857,104.143 C54.681,104.143 57.126,103.11 59.189,101.047 C61.253,98.983 62.285,96.539 62.285,93.714 L62.285,10.285 C62.285,7.461 61.254,5.017 59.189,2.953 L59.189,2.953 Z M24.482,10.285 L37.518,10.285 C38.387,10.285 38.821,10.72 38.821,11.589 C38.821,12.458 38.387,12.893 37.518,12.893 L24.482,12.893 C23.613,12.893 23.178,12.458 23.178,11.589 C23.178,10.72 23.613,10.285 24.482,10.285 L24.482,10.285 Z M35.604,98.318 C34.327,99.593 32.793,100.232 31,100.232 C29.208,100.232 27.674,99.594 26.397,98.318 C25.12,97.041 24.482,95.506 24.482,93.714 C24.482,91.922 25.121,90.387 26.397,89.111 C27.673,87.835 29.208,87.195 31,87.195 C32.793,87.195 34.327,87.835 35.604,89.111 C36.881,90.387 37.518,91.922 37.518,93.714 C37.518,95.507 36.88,97.041 35.604,98.318 L35.604,98.318 Z M54.465,80.679 C54.465,81.385 54.207,81.997 53.69,82.512 C53.173,83.028 52.563,83.285 51.858,83.285 L10.143,83.285 C9.437,83.285 8.826,83.027 8.31,82.512 C7.794,81.997 7.536,81.385 7.536,80.679 L7.536,23.322 C7.536,22.616 7.794,22.005 8.31,21.489 C8.826,20.974 9.437,20.715 10.143,20.715 L51.857,20.715 C52.564,20.715 53.174,20.973 53.691,21.489 C54.207,22.005 54.464,22.616 54.464,23.322 L54.464,80.679 L54.465,80.679 Z" id="Shape"></path>
        </g>
    </g>
</svg>