<?xml version="1.0" encoding="UTF-8"?>
<svg width="126px" height="120px" viewBox="0 0 126 120" version="1.1" xmlns="http://www.w3.org/2000/svg" xmlns:xlink="http://www.w3.org/1999/xlink">
    <!-- Generator: Sketch 43.1 (39012) - http://www.bohemiancoding.com/sketch -->
    <title>Group</title>
    <desc>Created with Sketch.</desc>
    <defs></defs>
    <g id="FontAwesome" stroke="none" stroke-width="1" fill="none" fill-rule="evenodd">
        <g id="fa/linkedin10" transform="translate(0.000000, -3.000000)" fill="#FFFFFF">
            <g id="Group" transform="translate(0.000000, 3.000000)">
                <rect id="Rectangle-path" x="2" y="39" width="26.886" height="80.739"></rect>
                <path d="M117.098,46.437 C111.451,40.272 103.981,37.189 94.694,37.189 C91.272,37.189 88.162,37.61 85.364,38.452 C82.567,39.294 80.205,40.475 78.276,41.996 C76.348,43.517 74.813,44.929 73.673,46.232 C72.589,47.47 71.53,48.911 70.495,50.542 L70.495,39.061 L43.69,39.061 L43.772,42.972 C43.827,45.58 43.854,53.618 43.854,67.088 C43.854,80.559 43.8,98.129 43.691,119.801 L70.495,119.801 L70.495,74.746 C70.495,71.976 70.793,69.777 71.391,68.146 C72.533,65.375 74.255,63.054 76.565,61.181 C78.874,59.306 81.739,58.369 85.161,58.369 C89.832,58.369 93.268,59.985 95.468,63.217 C97.667,66.448 98.767,70.916 98.767,76.619 L98.767,119.799 L125.572,119.799 L125.572,73.525 C125.57,61.629 122.747,52.6 117.098,46.437 L117.098,46.437 Z" id="Shape"></path>
                <path d="M15.583,0.199 C11.075,0.199 7.423,1.517 4.625,4.151 C1.827,6.785 0.429,10.111 0.429,14.131 C0.429,18.095 1.787,21.409 4.503,24.07 C7.218,26.731 10.803,28.062 15.257,28.062 L15.42,28.062 C19.983,28.062 23.663,26.732 26.46,24.07 C29.257,21.409 30.628,18.096 30.574,14.131 C30.52,10.111 29.134,6.785 26.419,4.151 C23.704,1.516 20.091,0.199 15.583,0.199 L15.583,0.199 Z" id="Shape"></path>
            </g>
        </g>
    </g>
</svg>