<?xml version="1.0" encoding="UTF-8"?>
<svg width="129px" height="105px" viewBox="0 0 129 105" version="1.1" xmlns="http://www.w3.org/2000/svg" xmlns:xlink="http://www.w3.org/1999/xlink">
    <!-- Generator: Sketch 43.1 (39012) - http://www.bohemiancoding.com/sketch -->
    <title>Shape</title>
    <desc>Created with Sketch.</desc>
    <defs></defs>
    <g id="FontAwesome" stroke="none" stroke-width="1" fill="none" fill-rule="evenodd">
        <g id="fa/twitter16" transform="translate(0.000000, -12.000000)" fill="#FFFFFF">
            <path d="M128.401,24.384 C123.35,26.557 118.297,27.914 113.248,28.459 C118.951,25.037 122.808,20.203 124.818,13.957 C119.602,17.052 114.035,19.17 108.115,20.311 C102.9,14.771 96.492,12 88.887,12 C81.609,12 75.404,14.566 70.27,19.699 C65.137,24.832 62.571,31.037 62.571,38.315 C62.571,40.27 62.788,42.28 63.223,44.344 C52.468,43.801 42.379,41.099 32.955,36.238 C23.531,31.376 15.533,24.899 8.961,16.806 C6.571,20.879 5.376,25.306 5.376,30.086 C5.376,34.594 6.435,38.777 8.554,42.633 C10.672,46.489 13.524,49.612 17.109,52.002 C12.872,51.839 8.907,50.725 5.214,48.661 L5.214,48.987 C5.214,55.342 7.21,60.922 11.202,65.73 C15.194,70.538 20.232,73.565 26.315,74.814 C24.034,75.411 21.725,75.71 19.39,75.71 C17.869,75.71 16.212,75.574 14.42,75.304 C16.104,80.572 19.2,84.903 23.708,88.298 C28.216,91.694 33.322,93.444 39.025,93.554 C29.466,101.048 18.576,104.796 6.355,104.796 C4.019,104.796 1.901,104.689 0,104.471 C12.221,112.346 25.691,116.283 40.411,116.283 C49.753,116.283 58.525,114.804 66.725,111.844 C74.928,108.884 81.934,104.919 87.746,99.948 C93.557,94.979 98.568,89.262 102.777,82.798 C106.986,76.335 110.122,69.587 112.187,62.553 C114.251,55.518 115.283,48.472 115.283,41.41 C115.283,39.889 115.256,38.749 115.201,37.988 C120.362,34.242 124.762,29.706 128.401,24.384 L128.401,24.384 Z" id="Shape"></path>
        </g>
    </g>
</svg>